<svg viewBox="0 0 33 40" xmlns="http://www.w3.org/2000/svg" xmlns:xlink="http://www.w3.org/1999/xlink" width="33.000000" height="40.000000" fill="none" customFrame="#000000">
	<g id="Logo">
		<path id="Shape" d="M31.881 24.704C33.3869 21.0824 33.3366 17.3882 31.9487 13.7252C30.2728 9.30602 26.3087 5.90534 20.7641 6.00201C19.811 6.01812 18.8572 6.01429 17.9036 6.01045C17.4269 6.00853 16.9502 6.00661 16.4738 6.00719C13.7188 5.98417 11.6572 6.03193 10.289 6.15047C7.89663 6.35761 5.83562 7.41752 4.1025 9.06953C1.94781 11.122 0.724733 13.6648 0.238973 16.5683C-0.369961 20.2072 0.152231 23.6579 2.18201 26.7859C4.36793 30.1537 7.57047 31.8196 11.5572 31.9576C13.4584 32.0228 15.3633 31.9993 17.2678 31.9757C17.6329 31.9712 17.998 31.9667 18.363 31.9628C18.6935 31.9594 19.0249 31.9596 19.3565 31.9598C20.5287 31.9604 21.7041 31.9611 22.8563 31.8023C27.2281 31.1981 30.2155 28.7089 31.881 24.704ZM7.86327 8.58935L25.5842 8.58935L25.5842 29.3041L7.86327 29.3041L7.86327 8.58935Z" fill="rgb(0,64,52)" fill-rule="evenodd" />
		<path id="Path" d="M3.39527 36.7618C3.2779 36.6561 3.17433 36.563 3 36.4079C3.78882 35.951 4.53104 35.4758 5.32504 35.0697C8.0747 33.6667 11.066 32.9518 14.3231 33.0025C16.2063 33.0321 17.9738 33.458 19.7292 33.96C21.8023 34.5536 23.8839 35.1289 25.9742 35.6803C27.9005 36.1879 29.7181 36.0032 31.37 34.9992C31.4615 34.9428 31.5633 34.8991 31.6772 34.8413C31.7773 34.9442 31.874 35.0443 32 35.1741C31.3752 35.614 30.7589 36.0483 30.141 36.4812C29.0622 37.2384 27.9955 38.0084 26.8977 38.7472C25.2786 39.8358 23.3903 40.1404 21.35 39.9444C18.8092 39.7005 16.4531 38.9447 14.1074 38.1733C12.188 37.543 10.2893 36.8746 8.36813 36.2457C6.67484 35.6916 5.05232 35.7734 3.5558 36.6956C3.523 36.7167 3.47985 36.7266 3.39182 36.7618L3.39527 36.7618Z" fill="rgb(0,64,52)" fill-rule="nonzero" />
		<path id="Shape" d="M12.0023 5C11.9161 2.28436 14.2506 -0.01348 17.0433 5.95308e-05C19.7669 0.013599 22.1092 2.35593 21.9961 5L12.0004 5L12.0023 5Z" fill="rgb(0,64,52)" fill-rule="nonzero" />
		<path id="Path" d="M12.8281 21.763C12.8281 20.5528 12.8385 19.6646 12.8474 18.5434C12.8385 18.2124 12.9666 17.9255 13.2316 17.6829C18.0723 12.9165 20.5242 10.512 20.5875 10.4695C20.5875 11.3178 20.6009 11.6915 20.6009 12.9091C20.6009 14.1266 20.5932 14.1177 20 14.6917C17.7354 16.8807 12.9676 21.6443 12.8267 21.763L12.8281 21.763Z" fill="rgb(0,64,52)" fill-rule="nonzero" />
		<path id="Path" d="M12.9306 27.6953C12.9306 26.5171 12.9408 25.6523 12.9494 24.5607C12.9407 24.2383 13.0654 23.9591 13.3235 23.7229C18.0365 19.0821 20.4238 16.741 20.4854 16.6996C20.4854 17.5256 20.4984 17.8895 20.4984 19.0749C20.4984 20.2604 20.4909 20.2517 19.9134 20.8105C17.7085 22.9418 13.0664 27.5798 12.9292 27.6953L12.9306 27.6953Z" fill="rgb(0,64,52)" fill-rule="nonzero" />
		<path id="Path" d="M12.8474 15.6913L12.8474 10.0779L18.4549 10.0779C16.604 11.9318 14.7339 13.8034 12.8474 15.6913Z" fill="rgb(0,64,52)" fill-rule="nonzero" />
		<path id="Path" d="M20.4594 27.6997L14.9998 27.6997C16.8192 25.8817 18.6415 24.0624 20.4594 22.2459L20.4594 27.6997Z" fill="rgb(0,64,52)" fill-rule="nonzero" />
	</g>
</svg>
